<svg width="36" height="36" viewBox="0 0 36 36" fill="none" xmlns="http://www.w3.org/2000/svg">
<path d="M32.1599 16.08L8.93995 4.46999C8.6267 4.32486 8.28212 4.26038 7.93759 4.28242C7.59306 4.30447 7.25951 4.41233 6.96731 4.5962C6.67511 4.78007 6.43353 5.0341 6.26458 5.33517C6.09562 5.63624 6.00465 5.97479 5.99995 6.31999V29.53C5.99702 29.8843 6.08556 30.2335 6.257 30.5436C6.42844 30.8537 6.67698 31.1144 6.97861 31.3004C7.28023 31.4864 7.62474 31.5915 7.97884 31.6054C8.33293 31.6193 8.68463 31.5417 8.99995 31.38L32.1599 19.77C32.503 19.5978 32.7914 19.3336 32.993 19.0069C33.1946 18.6802 33.3013 18.3039 33.3013 17.92C33.3013 17.5361 33.1946 17.1598 32.993 16.8331C32.7914 16.5064 32.503 16.2422 32.1599 16.07V16.08Z" fill="white"/>
</svg>
