<svg width="208" height="208" viewBox="0 0 208 208" fill="none" xmlns="http://www.w3.org/2000/svg">
<g clip-path="url(#clip0_3_69)">
<path d="M124.247 107.757C119.437 109.044 118.898 109.317 114.159 110.669C109.05 107.757 104.546 106.1 100.314 106.639C100.821 104 101.634 102.102 102.446 99.7295C111.416 98.41 118.085 103.181 124.247 107.75V107.757ZM170.254 170.15C165.249 175.149 159.696 179.567 153.699 183.319H153.666L121.569 143.338L148.18 146.25C148.18 146.25 160.946 147.57 163.852 146.25C166.523 145.236 180.849 125.021 180.849 125.021C180.849 125.021 139.613 98.956 125.534 84.5975C127.159 60.3915 123.675 28.197 123.675 28.431C113.347 38.792 111.995 40.417 101.634 49.998C97.1295 35.373 94.965 30.3615 90.4605 15.704C76.882 26.8775 66.5275 45.734 59.0785 67.8405C57.421 69.6995 55.8285 71.5975 54.3075 73.528C53.3585 74.88 52.312 76.2385 51.3305 77.6555C49.335 80.4635 47.437 83.512 45.6105 86.593C44.291 88.829 43.004 91.0975 41.782 93.431C41.2425 94.38 40.6965 95.4265 40.157 96.447C32.266 111.95 25.636 129.285 19.9095 145.028C13.6795 132.245 10.4388 118.213 10.4325 103.993C10.4325 79.1765 20.319 55.3475 37.856 37.7715C55.4052 20.2359 79.1978 10.3841 104.006 10.3805C128.837 10.3787 152.654 20.2299 170.228 37.7715C187.756 55.3523 197.593 79.1683 197.58 103.993C197.582 128.789 187.759 152.575 170.261 170.144L170.254 170.15ZM104 57.993C111.208 51.051 112.229 50.0045 119.164 43.368C119.704 56.641 119.437 63.5765 118.625 79.7615C114.627 75.803 106.671 70.72 106.671 70.72C106.671 70.72 105.079 61.4445 104 57.993ZM137.247 192.023C79.898 212.745 38.4605 174.551 29.627 161.213C29.6595 161.109 29.6595 160.979 29.6595 160.875C37.648 127.192 47.502 86.905 63.3425 74.984C71.604 60.632 74.009 39.338 88.8355 28.197C92.5925 39.338 98.4165 62.491 102.446 73.632C119.983 91.2015 146.523 113.041 164.365 122.109C166.224 123.123 168.597 130.605 168.597 130.605L161.453 139.574L84.9095 131.892C83.1875 131.729 81.4586 131.651 79.729 131.658C74.8215 131.658 69.7775 132.301 63.8495 133.217C67.6065 123.942 75.5625 116.46 75.5625 116.46C75.5625 116.46 68.146 111.956 62.53 111.215C64.1225 107.458 68.419 102.648 69.4395 101.328C67.34 102.108 51.9025 109.05 50.31 114.907C57.7265 116.733 63.037 119.106 63.037 119.106C63.037 119.106 54.808 127.4 53.2545 141.752C53.2545 141.752 77.6945 138.027 96.044 140.432C96.5835 140.667 96.8565 140.667 97.1295 140.667L106.678 140.939L137.319 191.958C137.319 191.967 137.317 191.975 137.314 191.983C137.311 191.991 137.306 191.998 137.3 192.004C137.294 192.01 137.287 192.015 137.279 192.018C137.271 192.021 137.263 192.023 137.254 192.023H137.247ZM177.534 30.472C158.034 10.972 131.592 0.039 104 0C76.4217 0.0255411 49.9784 10.9834 30.4655 30.472C11.0305 49.972 0.0324707 76.414 0.0324707 104.007C0.0324707 131.599 11.037 158.041 30.4655 177.469C49.933 197.035 76.4075 208.007 104 208.007C131.592 208.007 158.067 197.035 177.534 177.469C197.067 158.035 207.967 131.599 207.967 104.007C207.967 76.414 197.067 49.972 177.534 30.472Z" fill="black"/>
</g>
<defs>
<clipPath id="clip0_3_69">
<rect width="208" height="208" fill="white"/>
</clipPath>
</defs>
</svg>
